<svg width="28" height="28" viewBox="0 0 28 28" fill="none" xmlns="http://www.w3.org/2000/svg">
<rect width="28" height="28" rx="14" fill="#555555" fill-opacity="0.1"/>
<path fill-rule="evenodd" clip-rule="evenodd" d="M12.4574 12.1814H14.6858V13.2914C15.0068 12.653 15.83 12.0794 17.0666 12.0794C19.4372 12.0794 20 13.3502 20 15.6818V20H17.6V16.2128C17.6 14.885 17.279 14.1362 16.4618 14.1362C15.3284 14.1362 14.8574 14.9432 14.8574 16.2122V20H12.4574V12.1814ZM8.342 19.898H10.742V12.0794H8.342V19.898ZM11.0858 9.53C11.0859 9.73117 11.046 9.93034 10.9684 10.116C10.8909 10.3016 10.7772 10.4699 10.634 10.6112C10.3438 10.8996 9.95109 11.061 9.542 11.06C9.13363 11.0597 8.74179 10.8987 8.4512 10.6118C8.30853 10.47 8.19523 10.3015 8.11781 10.1159C8.04038 9.93022 8.00035 9.73113 8 9.53C8 9.1238 8.162 8.735 8.4518 8.4482C8.74213 8.1609 9.13414 7.99982 9.5426 8C9.9518 8 10.3442 8.1614 10.634 8.4482C10.9232 8.735 11.0858 9.1238 11.0858 9.53Z" fill="#E6E6E6"/>
</svg>
