<svg width="14" height="18" viewBox="0 0 14 18" fill="none" xmlns="http://www.w3.org/2000/svg">
<path d="M6.99998 9.00008C7.45831 9.00008 7.85081 8.83675 8.17748 8.51008C8.50359 8.18397 8.66665 7.79175 8.66665 7.33341C8.66665 6.87508 8.50359 6.48258 8.17748 6.15591C7.85081 5.8298 7.45831 5.66675 6.99998 5.66675C6.54165 5.66675 6.14942 5.8298 5.82331 6.15591C5.49665 6.48258 5.33331 6.87508 5.33331 7.33341C5.33331 7.79175 5.49665 8.18397 5.82331 8.51008C6.14942 8.83675 6.54165 9.00008 6.99998 9.00008ZM6.99998 17.3334C4.76387 15.4306 3.09387 13.6631 1.98998 12.0309C0.885535 10.3992 0.333313 8.88897 0.333313 7.50008C0.333313 5.41675 1.00359 3.75703 2.34415 2.52091C3.68415 1.2848 5.23609 0.666748 6.99998 0.666748C8.76387 0.666748 10.3158 1.2848 11.6558 2.52091C12.9964 3.75703 13.6666 5.41675 13.6666 7.50008C13.6666 8.88897 13.1147 10.3992 12.0108 12.0309C10.9064 13.6631 9.23609 15.4306 6.99998 17.3334Z" fill="#E6E6E6" fill-opacity="0.51"/>
</svg>
